<?xml version="1.0" encoding="utf-8"?>
<!-- Generator: Adobe Illustrator 22.0.1, SVG Export Plug-In . SVG Version: 6.00 Build 0)  -->
<svg version="1.1" id="Layer_1" xmlns="http://www.w3.org/2000/svg" xmlns:xlink="http://www.w3.org/1999/xlink" x="0px" y="0px"
	 viewBox="0 0 917 229.9" style="enable-background:new 0 0 917 229.9;" xml:space="preserve">
<style type="text/css">
	.st0{fill:#7761DF;}
	.st1{clip-path:url(#SVGID_2_);}
	.st2{fill:#FFC163;}
	.st3{fill:#51DBEE;}
	.st4{fill:#FF6376;}
</style>
<title>Purple text and image</title>
<g id="Layer_2_1_">
	<g id="Layer_2-2">
		<path class="st0" d="M333.4,140.9c15.3-0.1,27.7-12.5,27.7-27.8c0.1-7.4-2.8-14.4-8.1-19.5c-5.1-5.3-12.2-8.2-19.6-8.1
			c-15.1-0.1-27.4,12.1-27.5,27.2c0,0.1,0,0.2,0,0.3v89.7c0.4,8.2-6,15.2-14.2,15.6c-0.5,0-0.9,0-1.4,0c-4.1,0.2-8.2-1.4-11.1-4.4
			c-2.9-3-4.4-7.1-4.2-11.2v-89.6c0-16.5,5.6-30.4,16.8-41.6c11.2-11.2,25.1-16.9,41.6-16.8c16.5,0,30.4,5.6,41.7,16.9
			c11.3,11.2,16.9,25.1,16.9,41.6c0,16.5-5.6,30.4-16.9,41.8c-11.3,11.3-25.2,17-41.7,17c-4.1,0.2-8.2-1.4-11.1-4.4
			c-2.9-3-4.4-7.1-4.3-11.2c-0.5-8,5.6-14.9,13.7-15.3C332.2,140.9,332.8,140.9,333.4,140.9L333.4,140.9z"/>
		<path class="st0" d="M462.7,54.6c16.5,0,30.4,5.6,41.7,16.9s16.9,25.1,16.9,41.6c0,16.5-5.6,30.4-16.9,41.8
			c-11.3,11.3-25.2,17-41.7,17c-16.5,0-30.3-5.7-41.6-17c-11.2-11.3-16.8-25.3-16.8-41.8c0-16.5,5.6-30.4,16.8-41.6
			S446.3,54.6,462.7,54.6z M462.7,85.5c-15.1,0-27.5,12.2-27.5,27.4c0,0.1,0,0.1,0,0.2c-0.1,7.4,2.8,14.5,8,19.7
			c5.1,5.3,12.1,8.3,19.5,8.2c15.3-0.1,27.7-12.5,27.7-27.8c0.1-7.4-2.8-14.4-8.1-19.5C477.2,88.3,470.1,85.4,462.7,85.5z"/>
		<path class="st0" d="M592.3,140.9c15.3-0.1,27.7-12.5,27.7-27.8c0.1-7.4-2.8-14.4-8.1-19.5c-5.1-5.3-12.2-8.2-19.6-8.1
			c-15.1,0-27.4,12.2-27.4,27.3c0,0.1,0,0.1,0,0.2v89.7c0.4,8.2-6,15.2-14.3,15.6c-0.4,0-0.9,0-1.3,0c-4.1,0.2-8.2-1.4-11.1-4.4
			c-2.8-3-4.4-7.1-4.2-11.2v-89.6c0-16.5,5.6-30.4,16.8-41.6c11.2-11.2,25.1-16.9,41.6-16.8c16.5,0,30.4,5.6,41.7,16.9
			c11.3,11.2,17,25.1,17,41.6c0,16.5-5.7,30.4-17,41.8c-11.3,11.3-25.2,17-41.7,17c-4.1,0.2-8.2-1.4-11.1-4.4
			c-2.9-3-4.4-7.1-4.3-11.2c-0.5-8,5.6-14.9,13.7-15.3C591.2,140.9,591.8,140.9,592.3,140.9L592.3,140.9z"/>
		<path class="st0" d="M762,121.9c0,13.9-4.7,25.6-14.2,35.2s-21.1,14.3-35,14.3c-14,0-25.8-4.7-35.3-14.2
			c-9.5-9.5-14.2-21.2-14.2-35.3V43.1c-0.2-4.2,1.4-8.2,4.2-11.2c2.9-2.9,7-4.5,11.1-4.4c8.2-0.4,15.2,6,15.6,14.2
			c0,0.5,0,0.9,0,1.4v12.1h52.4c8-0.4,14.9,5.7,15.3,13.7c0,0.5,0,1.1,0,1.6c0,10.4-5.1,15.6-15.3,15.6h-52.4v35.7
			c-0.1,10.1,8,18.5,18.2,18.5c0.1,0,0.2,0,0.4,0c4.9,0.1,9.6-1.8,13-5.4c3.5-3.5,5.4-8.2,5.3-13.2v-2.1c-0.1-4.1,1.5-8.1,4.5-11
			c3-2.9,7-4.5,11.1-4.3c8.2-0.3,15.1,6.1,15.4,14.3c0,0.3,0,0.7,0,1V121.9z"/>
		<path class="st0" d="M803.3,11.4c3.6,3.5,5.7,8.3,5.6,13.4c0.1,5.1-2,9.9-5.6,13.4c-7.3,7.4-19.2,7.5-26.6,0.2
			c-0.1-0.1-0.1-0.1-0.2-0.2c-3.6-3.5-5.7-8.3-5.6-13.4c-0.1-5,2-9.9,5.6-13.4c7.3-7.4,19.2-7.5,26.6-0.2
			C803.2,11.3,803.2,11.3,803.3,11.4z M805.5,70c0-10.2-5.2-15.4-15.6-15.4c-8-0.4-14.9,5.7-15.3,13.7c0,0.5,0,1.1,0,1.6v86
			c-0.5,8,5.7,14.9,13.7,15.4c0.5,0,1.1,0,1.6,0c4.2,0.2,8.2-1.4,11.2-4.2c2.9-2.9,4.5-7,4.3-11.1V70z"/>
		<path class="st0" d="M902.7,68.8c-9.5-9.5-21.3-14.2-35.1-14.2c-13.9,0-25.6,4.7-35.1,14.2c-9.5,9.5-14.3,21.2-14.3,35.1V156
			c-0.5,8,5.6,14.9,13.7,15.4c0.6,0,1.1,0,1.7,0c4.2,0.2,8.2-1.4,11.2-4.3c2.9-2.9,4.5-7,4.4-11.1v-52.2c-0.1-4.9,1.8-9.7,5.4-13.1
			c3.5-3.5,8.3-5.4,13.3-5.3c4.9-0.1,9.6,1.9,13,5.4c3.5,3.4,5.5,8.1,5.4,13v46.4l0,0v5.8c-0.5,8,5.7,14.9,13.7,15.4
			c0.5,0,1.1,0,1.6,0c4.2,0.2,8.2-1.4,11.2-4.3c2.9-2.9,4.5-7,4.4-11.1v-52.1C917,90,912.2,78.3,902.7,68.8z"/>
		<g>
			<defs>
				<circle id="SVGID_1_" cx="115.4" cy="112.1" r="112.1"/>
			</defs>
			<clipPath id="SVGID_2_">
				<use xlink:href="#SVGID_1_"  style="overflow:visible;"/>
			</clipPath>
			<g class="st1">
				<path class="st2" d="M175.7,259.2c-64.7,14-128.5-27-142.6-91.8c-7.7-35.3,1-72.2,23.6-100.4C0.5,101.9-16.9,175.8,18,232.1
					s108.8,73.7,165,38.8c35.3-21.9,56.8-60.4,56.8-101.9c0-2.7-0.1-5.3-0.3-8C236.8,202.6,212.6,239.8,175.7,259.2z"/>
				<path class="st3" d="M156.7,234.9c-61-0.8-109.8-50.9-109-111.9c0.1-5.2,0.5-10.4,1.3-15.6c-27.4,60.3-0.7,131.4,59.6,158.8
					c15.1,6.9,31.5,10.5,48.1,10.7V234.9z"/>
				<path class="st0" d="M223,80.6c0.3,0.8,0.5,1.7,0.7,2.5c-5.1-7.9-9.7-15.2-14.6-21.7c6.8,9.8,10.4,21.5,10.5,33.4
					c0,36-33.2,65.2-74.1,65.2s-74.1-29.2-74.1-65.2s33.2-65.2,74.1-65.2c2.6,0,5.1,0.1,7.6,0.3c-10-1.3-20.1-2-30.2-1.9
					c-14.5,0-28.9,2.6-42.5,7.7c-41.2,45-38.1,114.9,6.9,156c32.4,29.7,79.4,37.3,119.5,19.4C239.1,175.5,245.5,123.3,223,80.6z"/>
				<path d="M114.4,86c-10.3,0.1-17.7-8.8-16.5-19.9s10.6-20.1,21-20.2c2,0,3.9,0.3,5.7,1c-3.2-2.1-7-3.2-10.8-3.2
					c-12.3,0.1-23.4,10.8-24.9,24s7.3,23.7,19.5,23.6c8.2-0.1,15.9-4.9,20.5-12.1C125.3,83.4,120,85.8,114.4,86z"/>
				<path d="M117.4,48.9h-0.1c1,1,1.5,2.4,1.3,3.8c-0.3,2.7-2.4,4.7-5.1,4.9c-2.3,0-4.1-1.8-4.1-4.1c0-0.2,0-0.5,0.1-0.7
					c0.1-0.4,0.2-0.9,0.3-1.3c-3.5,2.5-5.8,6.4-6.3,10.7c-0.8,7.3,4,13.2,10.8,13.1s13-6,13.8-13.3C129,54.7,124.2,48.9,117.4,48.9z
					"/>
				<path d="M199.3,50c-2.7-0.6-5.4-0.9-8.1-1c-29.2-1.1-62.1,24.6-73.5,57.5c-7.3,21-4,39.8,7,51c6.8,1.7,13.8,2.6,20.8,2.5
					c40.9,0,74.1-29.2,74.1-65.2C219.6,77.5,211.9,61.7,199.3,50z M187.4,139.6c0.2-0.6,8.1-22.2-21-20.8
					c-36.6,1.8-32.4-18.5-27.5-27.6c10.5-19.8,32.4-30.6,51.9-30.6c10,0,18.5,22.6,18.5,36.2C209.3,113.9,200.8,129.1,187.4,139.6
					L187.4,139.6z"/>
				<path class="st4" d="M122.9,28.1c67.6,0,79.5,21.9,100.8,55c-16-59.8-77.4-95.3-137.2-79.4c-55,14.7-90.3,68.3-82,124.7
					C14.2,70.6,64.2,28.1,122.9,28.1z"/>
			</g>
		</g>
	</g>
</g>
</svg>
